<svg width="28" height="28" viewBox="0 0 28 28" fill="none" xmlns="http://www.w3.org/2000/svg">
<path d="M6.354 16.764L14 25L21.689 16.725C21.8776 16.545 21.9885 16.2985 21.998 16.038C22.0075 15.7775 21.9149 15.5235 21.74 15.3303C21.565 15.137 21.3214 15.0197 21.0612 15.0034C20.801 14.9871 20.5447 15.0731 20.347 15.243L15 20.75V4.00201C15.0003 3.73679 14.8952 3.48233 14.7078 3.29461C14.5205 3.10688 14.2662 3.00127 14.001 3.00101C13.8697 3.00088 13.7396 3.02661 13.6182 3.07675C13.4969 3.12688 13.3866 3.20043 13.2936 3.29319C13.1059 3.48054 13.0003 3.73479 13 4.00001V20.75L7.715 15.301C7.52525 15.111 7.26854 15.0029 7 15C6.73478 15 6.48043 15.1054 6.29289 15.2929C6.10536 15.4804 6 15.7348 6 16C6 16.306 6.151 16.537 6.354 16.764Z" fill="black"/>
</svg>
