<svg width="18" height="18" viewBox="0 0 18 18" fill="none" xmlns="http://www.w3.org/2000/svg">
<path d="M14.646 6.764L8.99998 13L3.31098 6.725C3.12235 6.54503 3.01147 6.29852 3.00195 6.03798C2.99243 5.77745 3.08504 5.5235 3.26003 5.33025C3.43502 5.137 3.67857 5.01973 3.93877 5.00343C4.19897 4.98714 4.45524 5.0731 4.65298 5.243L8.99998 10L13.285 5.301C13.485 5.114 13.72 5 14 5C14.2652 5 14.5196 5.10536 14.7071 5.29289C14.8946 5.48043 15 5.73478 15 6C15 6.306 14.849 6.537 14.646 6.764Z" fill="black"/>
</svg>
